<svg width="91" height="92" viewBox="0 0 91 92" fill="none" xmlns="http://www.w3.org/2000/svg">
<circle cx="45.2523" cy="48.7476" r="42.2523" fill="#A8DADC" stroke="black" stroke-width="2"/>
<path d="M25.2897 89.9206H2.41589L10.7337 74.1168L33.1916 29.2402L46.5 3L59.8084 29.2009L80.6028 72.8773L88.9206 89.9206H67.7103L57.3131 71.2056C49.0357 72.2706 44.3133 72.3507 35.6869 71.2056L25.2897 89.9206Z" fill="#F1FAEE"/>
<path d="M25.2897 89.9206H2.41589L10.7337 74.1168M25.2897 89.9206L35.6869 71.2056M25.2897 89.9206L10.7337 74.1168M35.6869 71.2056C44.3133 72.3507 49.0357 72.2706 57.3131 71.2056M35.6869 71.2056L41.0935 60.8084M57.3131 71.2056L67.7103 89.9206M57.3131 71.2056L51.4907 60.8084M67.7103 89.9206H88.9206L80.6028 72.8773M67.7103 89.9206L80.6028 72.8773M46.5 49.9953L41.0935 60.8084M46.5 49.9953L51.4907 60.8084M46.5 49.9953L59.8084 29.2009M46.5 49.9953L33.1916 29.2402M41.0935 60.8084C45.0685 60.2053 47.3423 60.1865 51.4907 60.8084M59.8084 29.2009L46.5 3L33.1916 29.2402M59.8084 29.2009L33.1916 29.2402M59.8084 29.2009L80.6028 72.8773M33.1916 29.2402L10.7337 74.1168" stroke="black" stroke-width="2"/>
<path d="M41.0935 60.3925L46.5 50.4112L51.0748 60.3925H41.0935Z" fill="black"/>
<path d="M2.41589 89.9206L10.7337 74.1168L24.8738 89.9206H2.41589Z" fill="black"/>
<path d="M80.6028 72.8692L67.7103 89.9206H88.9206L80.6028 72.8692Z" fill="black"/>
<path d="M33.1916 29.2009L46.5 3.41589L59.8084 29.2009H33.1916Z" fill="black"/>
<circle cx="46.0841" cy="66.215" r="5.82243" fill="black"/>
<circle cx="47.7477" cy="63.7196" r="1.66355" fill="#F1FAEE"/>
<circle cx="44.4205" cy="67.8785" r="0.831776" fill="#F1FAEE"/>
</svg>
