<svg width="48" height="48" viewBox="0 0 48 48" fill="none" xmlns="http://www.w3.org/2000/svg">
<path d="M10.5 18C9.01664 18 7.5666 17.5601 6.33323 16.736C5.09986 15.9119 4.13856 14.7406 3.57091 13.3701C3.00325 11.9997 2.85472 10.4917 3.14411 9.03682C3.4335 7.58196 4.14781 6.24559 5.1967 5.1967C6.2456 4.1478 7.58197 3.4335 9.03683 3.14411C10.4917 2.85472 11.9997 3.00325 13.3701 3.5709C14.7406 4.13856 15.9119 5.09985 16.736 6.33322C17.5601 7.56659 18 9.01664 18 10.5H15C15 9.60998 14.7361 8.73995 14.2416 7.99993C13.7472 7.25991 13.0443 6.68314 12.2221 6.34254C11.3998 6.00195 10.495 5.91283 9.6221 6.08647C8.74918 6.2601 7.94736 6.68868 7.31802 7.31802C6.68869 7.94736 6.2601 8.74918 6.08647 9.62209C5.91284 10.495 6.00195 11.3998 6.34255 12.2221C6.68314 13.0443 7.25992 13.7471 7.99994 14.2416C8.73996 14.7361 9.60999 15 10.5 15V18ZM37.5 18V15C38.39 15 39.26 14.7361 40.0001 14.2416C40.7401 13.7471 41.3169 13.0443 41.6575 12.2221C41.9981 11.3998 42.0872 10.495 41.9135 9.62209C41.7399 8.74918 41.3113 7.94736 40.682 7.31802C40.0526 6.68868 39.2508 6.2601 38.3779 6.08647C37.505 5.91283 36.6002 6.00195 35.7779 6.34254C34.9557 6.68314 34.2529 7.25991 33.7584 7.99993C33.2639 8.73995 33 9.60998 33 10.5H30C30 9.01664 30.4399 7.56659 31.264 6.33322C32.0881 5.09985 33.2594 4.13856 34.6299 3.5709C36.0003 3.00325 37.5083 2.85472 38.9632 3.14411C40.418 3.4335 41.7544 4.1478 42.8033 5.1967C43.8522 6.24559 44.5665 7.58196 44.8559 9.03682C45.1453 10.4917 44.9968 11.9997 44.4291 13.3701C43.8614 14.7406 42.9001 15.9119 41.6668 16.736C40.4334 17.5601 38.9834 18 37.5 18ZM10.5 45C8.51088 45 6.60323 44.2098 5.1967 42.8033C3.79018 41.3968 3 39.4891 3 37.5C3 35.5109 3.79018 33.6032 5.1967 32.1967C6.60323 30.7902 8.51088 30 10.5 30V33C9.60999 33 8.73996 33.2639 7.99994 33.7584C7.25992 34.2529 6.68314 34.9557 6.34255 35.7779C6.00195 36.6002 5.91284 37.505 6.08647 38.3779C6.2601 39.2508 6.68869 40.0526 7.31802 40.682C7.94736 41.3113 8.74918 41.7399 9.6221 41.9135C10.495 42.0872 11.3998 41.9981 12.2221 41.6575C13.0443 41.3169 13.7472 40.7401 14.2416 40.0001C14.7361 39.26 15 38.39 15 37.5H18C17.998 39.4885 17.2072 41.395 15.8011 42.8011C14.395 44.2072 12.4885 44.998 10.5 45ZM37.5 45C35.5115 44.998 33.605 44.2072 32.1989 42.8011C30.7928 41.395 30.002 39.4885 30 37.5H33C33 38.39 33.2639 39.26 33.7584 40.0001C34.2529 40.7401 34.9557 41.3169 35.7779 41.6575C36.6002 41.9981 37.505 42.0872 38.3779 41.9135C39.2508 41.7399 40.0526 41.3113 40.682 40.682C41.3113 40.0526 41.7399 39.2508 41.9135 38.3779C42.0872 37.505 41.9981 36.6002 41.6575 35.7779C41.3169 34.9557 40.7401 34.2529 40.0001 33.7584C39.26 33.2639 38.39 33 37.5 33V30C39.4891 30 41.3968 30.7902 42.8033 32.1967C44.2098 33.6032 45 35.5109 45 37.5C45 39.4891 44.2098 41.3968 42.8033 42.8033C41.3968 44.2098 39.4891 45 37.5 45Z" fill="#F1FAEE"/>
<path d="M30 27.879V20.121L38.5605 11.5605C38.7038 11.4221 38.8181 11.2566 38.8967 11.0736C38.9753 10.8906 39.0167 10.6938 39.0184 10.4946C39.0202 10.2954 38.9822 10.0979 38.9068 9.91357C38.8314 9.72922 38.72 9.56175 38.5791 9.42091C38.4383 9.28007 38.2708 9.16869 38.0865 9.09327C37.9021 9.01785 37.7046 8.97989 37.5054 8.98162C37.3063 8.98335 37.1094 9.02473 36.9264 9.10335C36.7434 9.18196 36.5779 9.29623 36.4395 9.4395L29.6895 16.1895C29.3118 14.9758 28.5558 13.9146 27.5321 13.1611C26.5083 12.4075 25.2705 12.0011 23.9993 12.0011C22.7281 12.0011 21.4903 12.4075 20.4665 13.1611C19.4428 13.9146 18.6868 14.9758 18.309 16.1895L11.5605 9.4395C11.2793 9.15829 10.8978 9.00032 10.5 9.00032C10.1023 9.00032 9.72084 9.15829 9.43955 9.4395C9.15834 9.72079 9.00037 10.1023 9.00037 10.5C9.00037 10.8977 9.15834 11.2792 9.43955 11.5605L18 20.121V27.879L9.43955 36.4395C9.15834 36.7208 9.00037 37.1023 9.00037 37.5C9.00037 37.8977 9.15834 38.2792 9.43955 38.5605C9.72084 38.8417 10.1023 38.9997 10.5 38.9997C10.8978 38.9997 11.2793 38.8417 11.5605 38.5605L18.3105 31.8105C18.6883 33.0242 19.4443 34.0854 20.468 34.8389C21.4918 35.5925 22.7296 35.9989 24.0008 35.9989C25.272 35.9989 26.5098 35.5925 27.5336 34.8389C28.5573 34.0854 29.3133 33.0242 29.691 31.8105L36.441 38.5605C36.7239 38.8337 37.1029 38.9849 37.4961 38.9815C37.8894 38.9781 38.2657 38.8203 38.5438 38.5422C38.8219 38.2641 38.9796 37.8879 38.9831 37.4946C38.9865 37.1013 38.8353 36.7224 38.562 36.4395L30 27.879ZM27 30C27 30.7956 26.684 31.5587 26.1214 32.1213C25.5588 32.6839 24.7957 33 24 33C23.2044 33 22.4413 32.6839 21.8787 32.1213C21.3161 31.5587 21 30.7956 21 30V18C21 17.2044 21.3161 16.4413 21.8787 15.8787C22.4413 15.3161 23.2044 15 24 15C24.7957 15 25.5588 15.3161 26.1214 15.8787C26.684 16.4413 27 17.2044 27 18V30Z" fill="#F1FAEE"/>
</svg>
