<svg width="30" height="30" viewBox="0 0 30 30" fill="none" xmlns="http://www.w3.org/2000/svg">
<path d="M27.2461 25.2539L22.4766 20.4844C24.017 18.5185 24.8508 16.0913 24.8438 13.5938C24.8438 11.3687 24.184 9.19364 22.9478 7.34359C21.7116 5.49354 19.9546 4.0516 17.8989 3.20011C15.8433 2.34862 13.5813 2.12584 11.399 2.55992C9.2167 2.994 7.21214 4.06546 5.6388 5.6388C4.06546 7.21214 2.994 9.2167 2.55992 11.399C2.12584 13.5813 2.34862 15.8433 3.20011 17.8989C4.0516 19.9546 5.49354 21.7116 7.34359 22.9478C9.19364 24.184 11.3687 24.8438 13.5938 24.8438C16.0913 24.8508 18.5185 24.017 20.4844 22.4766L25.2539 27.2461C25.5193 27.508 25.8771 27.6549 26.25 27.6549C26.6229 27.6549 26.9807 27.508 27.2461 27.2461C27.3772 27.1155 27.4812 26.9602 27.5522 26.7893C27.6232 26.6184 27.6597 26.4351 27.6597 26.25C27.6597 26.0649 27.6232 25.8817 27.5522 25.7107C27.4812 25.5398 27.3772 25.3846 27.2461 25.2539ZM5.15626 13.5938C5.15626 11.925 5.65111 10.2937 6.57823 8.90613C7.50535 7.51859 8.82311 6.43714 10.3649 5.79852C11.9066 5.15991 13.6031 4.99282 15.2398 5.31838C16.8765 5.64394 18.38 6.44754 19.56 7.62754C20.74 8.80755 21.5436 10.311 21.8691 11.9477C22.1947 13.5844 22.0276 15.2809 21.389 16.8226C20.7504 18.3644 19.6689 19.6822 18.2814 20.6093C16.8938 21.5364 15.2625 22.0313 13.5938 22.0313C11.3569 22.0282 9.21263 21.1382 7.63097 19.5565C6.0493 17.9749 5.15936 15.8306 5.15626 13.5938Z" fill="#1D3557"/>
</svg>
