<svg width="55" height="55" viewBox="0 0 55 55" fill="none" xmlns="http://www.w3.org/2000/svg">
<path d="M27.4771 4.58334C14.8271 4.58334 4.56042 14.85 4.56042 27.5C4.56042 40.15 14.8271 50.4167 27.4771 50.4167C40.1271 50.4167 50.3938 40.15 50.3938 27.5C50.3938 14.85 40.1271 4.58334 27.4771 4.58334ZM35.75 19.1125C38.2021 19.1125 40.1729 21.0833 40.1729 23.5354C40.1729 25.9875 38.2021 27.9583 35.75 27.9583C33.2979 27.9583 31.3271 25.9875 31.3271 23.5354C31.3042 21.0833 33.2979 19.1125 35.75 19.1125ZM22 15.4917C24.9792 15.4917 27.4083 17.9208 27.4083 20.9C27.4083 23.8792 24.9792 26.3083 22 26.3083C19.0208 26.3083 16.5917 23.8792 16.5917 20.9C16.5917 17.8979 18.9979 15.4917 22 15.4917ZM22 36.4146V45.0083C16.5 43.2896 12.1458 39.05 10.2208 33.6417C12.6271 31.075 18.6313 29.7688 22 29.7688C23.2146 29.7688 24.75 29.9521 26.3542 30.2729C22.5958 32.2667 22 34.9021 22 36.4146ZM27.4771 45.8333C26.8583 45.8333 26.2625 45.8104 25.6667 45.7417V36.4146C25.6667 33.1604 32.4042 31.5333 35.75 31.5333C38.2021 31.5333 42.4417 32.4271 44.55 34.1688C41.8688 40.975 35.2458 45.8333 27.4771 45.8333Z" fill="#F1FAEE"/>
</svg>
