<svg width="59" height="59" viewBox="0 0 59 59" fill="none" xmlns="http://www.w3.org/2000/svg">
<path d="M29.5 23.4771L47.323 37.3052C46.1348 40.542 44.4246 43.4609 42.1924 46.0618C39.9586 48.6643 37.3667 50.7236 34.4167 52.2396V36.9365H24.5834V52.2396C21.6334 50.7236 19.0423 48.6643 16.8101 46.0618C14.5763 43.4609 12.8653 40.542 11.6771 37.3052L29.5 23.4771ZM29.5 4.97812L49.1667 12.3531V27.2875C49.1667 28.1069 49.1257 28.9157 49.0438 29.7139C48.9618 30.5136 48.8594 31.3233 48.7365 32.1427L29.5 17.2698L10.2636 32.1427C10.0997 31.3233 9.98661 30.5136 9.92433 29.7139C9.86369 28.9157 9.83337 28.1069 9.83337 27.2875V12.3531L29.5 4.97812Z" fill="#F1FAEE"/>
</svg>
