<svg width="59" height="59" viewBox="0 0 59 59" fill="none" xmlns="http://www.w3.org/2000/svg">
<path d="M40.5625 39.9479L47.5934 44.1025L45.7496 47.1017L36.875 41.7917V29.5H40.5625V39.9479ZM56.5417 39.3333C56.5417 48.8471 48.8471 56.5417 39.3334 56.5417C33.4825 56.5417 28.3446 53.6163 25.2225 49.1667H9.83337V29.5H2.45837L27.0417 7.375L44.25 22.8379C51.3546 24.9521 56.5417 31.5404 56.5417 39.3333ZM51.625 39.3333C51.625 32.5483 46.1184 27.0417 39.3334 27.0417C32.5484 27.0417 27.0417 32.5483 27.0417 39.3333C27.0417 46.1183 32.5484 51.625 39.3334 51.625C46.1184 51.625 51.625 46.1183 51.625 39.3333Z" fill="#F1FAEE"/>
</svg>
